<svg xmlns="http://www.w3.org/2000/svg" id="svg-pelmeni" class="svg-icon svg-pelmeni" fill-rule="evenodd" version="1" viewBox="0 0 341.97656 342.28625" clip-rule="evenodd" image-rendering="optimizeQuality" shape-rendering="geometricPrecision" text-rendering="geometricPrecision">
  <g>
    <path id="background" class="background" fill="#c62627" d="M214.4002 5.30848c4.84724 3.6286 7.68376 12.43472 14.7907 10.24485 5.7415.19376 13.52706-3.6833 15.5241 3.96736 2.42373 6.2196 6.76733 9.3705 13.5334 8.6496 6.93552-.6027 11.45257 1.9729 12.47996 9.1345.6804 7.3906 8.90524 6.2939 14.24557 8.4422 7.67016-.2966 5.80914 8.5685 7.8677 13.666 1.83594 5.3939 10.1516 5.5237 14.6356 8.7665 4.22776 2.8488 1.11413 10.6474 2.47562 15.4288 4.8661 3.5389 9.73224 7.078 14.59833 10.6169.50948 5.3684-4.43345 12.6561.12256 16.6003 3.0115 4.6031 12.37015 7.4285 9.47318 13.6866-1.57343 5.8006-4.872 11.9098.98777 16.3808 4.246 4.8348 7.7841 9.7397 2.82 15.48652-4.8295 5.61153-.4098 11.1911 2.0649 16.7774 5.3006 5.58995-1.5387 9.98816-4.3697 14.7798-3.9677 4.68155 2.086 11.01622 2.4714 16.4159 2.7397 6.00792-6.7222 8.77563-9.5889 13.29474l1.9907 17.9161c-4.3078 4.1462-13.4685 5.4596-12.3025 12.80102-1.4295 5.2807 2.0147 13.9746-5.3931 15.0687-6.5573 1.7386-10.8429 5.3421-10.8106 12.4903-.0941 6.922-3.3854 10.80725-10.4146 11.1424-7.67.0597-7.9813 8.6869-11.1979 13.93144-1.4407 6.7109-10.205 3.0726-15.1679 4.8062-4.2797 3.02164-6.2306 9.7798-9.6464 14.18763-3.897 3.0839-11.5107-1.7262-15.9605.5656-4.1837 3.7197-7.5658 10.22866-12.228 12.28344-5.66765-.59725-12.4189-6.5099-16.7727-.66214-4.8118 2.5567-8.799 11.0591-14.6232 6.31675-5.5734-3.041-11.1109-5.4266-16.2332-.24124-5.12927 3.85518-10.1984 6.3066-14.9106.42325-4.6994-5.7991-10.4815-3.1353-16.2437-.62755-6.119 4.8423-10.0887-.71527-14.33318-4.9434-4.156-5.2582-11.51517-.1708-17.2158-.4401-5.941.9143-7.9446-8.0709-12.1568-11.5031-5.7122-.58594-12.87064 1.16825-17.68656-.8679-3.43167-4.2474-3.3687-13.1384-10.018-13.1101-4.94846-2.2319-14.4539.549-15.166-6.34293-1.24546-6.2976-2.75957-12.34397-10.2188-12.8322-6.2512-1.4067-11.5184-3.6098-10.3341-11.0341 1.2777-7.2604-4.99848-9.29785-10.327-11.9905-7.76086-1.4893-6.7573-7.9326-6.05565-14.20524 1.65118-6.4385-6.9079-8.434-10.1716-12.7338-5.8231-3.5576-.0531-11.2583-.31692-16.80255-2.84283-4.9991-9.2724-9.2834-10.8845-14.4563 1.0611-5.74678 7.71195-12.00595 2.44043-17.1723-1.8596-5.077-9.8371-10.2047-4.17654-15.2196 3.92783-4.9537 6.93773-9.9915 2.48903-15.71305-3.0774-5.69284-5.13604-11.1936 1.5565-15.0447 6.71667-3.7944 3.3582-10.3474 2.1184-16.3203-4.1438-6.986 3.0543-9.8891 7.7357-13.6982 5.5259-3.32987 1.1926-11.24906 2.1936-16.6852-.1623-5.72275 8.7443-6.44656 12.5035-10.0077.88472-5.97203 1.7695-11.94407 2.65423-17.9161 4.5695-2.82817 13.2999-1.5911 14.7908-7.4272 2.77566-4.61763 1.3212-13.9995 7.3164-14.9911 5.48406-1.51543 13.15236-.0657 14.4274-7.2951 2.82717-5.3355 4.498-12.57865 12.06193-10.10025 6.83377 1.9585 10.4788-2.345 13.5132-7.84738 2.6645-7.0489 8.05645-7.2902 14.45655-5.0152 6.4352 3.2236 9.7791-4.4473 14.4277-7.52 3.8945-6.5203 10.421-.4154 15.862.4833 5.4299.8815 9.7869-5.9432 14.7952-8.0899 4.6312-2.3602 9.609 4.6891 14.3787 6.0917l16.589-7.2991c4.8197 2.394 8.3439 10.2939 14.1169 8.6353l14.4162-3.3268z"/>
    <path id="path12" class="decor" fill="#c62627" d="M182.54932 336.42496c-8.44433 5.07464-17.25323-11.1196-27.86952-10.61696-8.5178-7.71243-21.97937-.74458-30.52377 3.3178-4.5929 6.27084-17.9365 3.54646-5.26336-1.37225 6.39745-8.40213 18.35102-7.6486 27.16085-9.90827 12.22974 4.68347 26.57856 8.79057 36.4958 18.57968z"/>
    <path id="path14" class="decor" fill="#c62627" d="M173.25948 341.73344c-3.987 3.49543-18.2578-11.07144-5.97204-2.41576 1.9912.73363 3.6708 2.84442 5.97204 2.41576zm-15.26188-6.6356c-6.85292 2.2782-16.4906 5.07-21.98773-.09025-.89275-4.8602 18.23728-2.5342 21.98773.0902z"/>
    <path id="path16" class="decor" fill="#c62627" d="M216.39088 329.78936c-9.72852 6.5115-15.13958-5.0347-21.51388-12.2655-14.88026-4.88508-29.9935-11.17277-45.75452-12.22398-9.6617-.76157-33.9222 15.9823-32.2656-1.38937-4.8933-2.4426 3.99847-10.2318 3.98135-15.9254 6.30648-17.6728 18.7909-34.5764 37.35638-40.8063 16.5265-6.82 35.452-1.2346 50.2336 6.9648 17.5487 10.3118 28.4574 35.7078 15.096 53.5722-5.0165 6.2719-7.2348 14.0633-7.1333 22.0738zm-96.2162-27.86953c5.65983 13.67876 25.5848-7.63897 38.07175-.49767 15.15425 6.42658 34.55642 5.78253 46.28332 18.3205 2.84355 10.19142 8.61885 9.96534 7.2162-1.23382 5.69568-13.9974 18.90092-28.22048 8.6263-43.79497-5.67504-14.30788-19.7502-21.2949-33.75703-24.96592-23.88724-7.25477-48.63352 9.89873-57.64838 31.65335-3.4016 6.6395-3.15622 14.726-8.79217 20.51853z"/>
    <path id="path18" class="decor" fill="#c62627" d="M138.0908 290.6393c-11.7557-11.58077 16.22563-23.05306 26.21062-18.33083 14.94052-5.33118 29.06214 3.79377 42.4782 8.61592-.30133 7.7174 15.0638 11.9486 6.29346 19.0047-4.31586-5.9132-8.7688-11.7939-13.2712-17.9161-12.82277-2.825-25.34162-10.6378-39.09822-5.153-8.289-3.5986-20.90645 5.145-22.61287 13.7792z"/>
    <path id="path20" class="decor" fill="#c62627" d="M178.56796 256.79775c14.67058-4.40757-2.0429 21.8566.49767 3.56663l-.49767-3.56663z"/>
    <path id="path22" class="decor" fill="#c62627" d="M194.4934 272.05963c2.38563-12.5724 16.4823-5.69918 4.2302 2.07363-1.2723-.09722-4.7734.47378-4.2302-2.07363z"/>
    <path id="path24" class="decor" fill="#c62627" d="M164.6332 261.44267c-2.29798 15.4338-10.72128-17.13518-.08295-3.89842.12137 1.29746.07293 2.59857.08295 3.89842z"/>
    <path id="path26" class="decor" fill="#c62627" d="M210.41884 285.33083c-.48227-11.8784 18.11048-4.4199 2.98602.33178l-2.98602-.3317z"/>
    <path id="path28" class="decor" fill="#c62627" d="M317.91558 251.48927c2.70307 15.01955-11.27236 1.75412-20.46672 2.67494-13.19728 5.2063-25.3385-7.233-37.92657 3.2971-10.4854 6.0897-15.1784 21.6071-20.4875 31.8509-1.8703 10.1231 6.6465 25.7635 5.302 30.8683-10.9953-6.3134-7.8671-24.3046-9.3663-35.5132 5.8491-7.6747 10.975-16.3986 14.5983-25.8788 8.7271-7.0712 21.3949-15.5824 32.5248-10.9591 10.3693 4.4912 20.4465-1.8512 31.177 3.3282l1.9907-.3318 2.6542.6636z"/>
    <path id="path30" class="decor" fill="#c62627" d="M258.19517 316.51816c-5.04976 9.47736-8.26026-6.97216-10.23117-11.7281-7.6545-15.76346 12.81527-15.67793 20.84813-6.02214 19.45744-.00663-.56867-21.24434-11.28052-10.1193-20.072 4.84393-4.4328-23.40588 7.631-24.5517 9.3146-6.68133 29.6263-7.1141 30.192 7.29915-11.4747-11.15046-30.6387-3.9379-39.5854 6.62525-9.0207 13.5578 16.083-4.5631 22.0945 5.77503 13.6451 16.57327-11.2603 28.11696-21.9908 13.39562-11.294-2.4096 1.4268 16.28396 2.3225 19.3262z"/>
    <path id="path32" class="decor" fill="#c62627" d="M308.62573 264.76047c-8.41122 11.6963-13.62547-9.9495 0 0z"/>
    <path id="path34" class="decor" fill="#c62627" d="M82.35175 311.20967c-7.92955-6.76333 6.67734-17.72846 10.49254-25.7752 3.7242-11.52165 19.2228-11.25364 23.349-13.37484-7.2139-10.59095-22.6424-14.99115-33.178-22.80988-15.2206 4.47844-35.6202 4.01527-44.4586 19.49208-6.8898-11.278 20.5092-19.30515 31.1355-21.28575 17.5206-9.86077 28.665 8.01448 43.8468 13.0742 12.3206 6.009 5.6015 23.89492-6.6356 17.5014-10.9309 7.43638-19.0726 20.7367-24.5518 33.178z"/>
    <path id="path36" class="decor" fill="#c62627" d="M51.82798 287.98507c-10.09772-5.5899 13.2692-21.87943 22.79953-22.4574 8.3863-4.9465 27.9417 4.8509 10.0467 4.29244-14.0402-.7841-25.4805 6.414-32.8462 18.165z"/>
    <path id="path38" class="decor" fill="#c62627" d="M41.87458 270.06895c-2.61827-11.0488 20.47176 4.59635 5.30848 3.98136-2.33944-.5964-3.69968-2.4486-5.30848-3.9813z"/>
    <path id="path40" class="decor" fill="#c62627" d="M79.03395 262.7698c-6.737-13.4438 13.0219-8.52888 0 0z"/>
    <path id="path42" class="decor" fill="#c62627" d="M65.76275 264.0969c-11.1204 9.59562-2.05664-16.98434 0 0z"/>

    <path id="path44" class="words" fill="#fefefe" d="M33.2483 156.60018c9.99706-2.47827 16.91833 1.6254 28.896-3.61846 17.9009-3.305-6.55977 12.39264.2631 23.1339-.71042 14.95936 1.40103 30.07778 1.53056 44.84988-15.81822 15.50627-10.80562-17.39728-12.93943-26.87418-1.508-10.1814 2.42372-26.8404.1659-32.84622-15.42254 10.752-4.95176 36.39116-7.7074 53.14313 8.42756 12.7598-16.19013 20.303-11.60712 4.26808-.3214-20.6855.1631-41.4065 1.3984-62.0561z"/>
    <path id="path46" class="words" fill="#fefefe" d="M194.4934 222.95618c-1.15672-13.16655.98313-30.66118 0-41.14072-7.8263 6.96028-17.48102-5.6972-13.86675 8.80305-2.9119 8.8344 12.71853 31.7631-2.57215 29.6835-13.93437.5379-4.6933-24.7153-8.91507-33.9919-5.32002-10.6693 2.66267-28.9292 10.75565-15.1944 9.7299 14.9961 13.7749-20.0832 27.20596-6.5526-4.8264 18.2248 3.15497 44.8962-4.58268 58.6733-2.68138.0915-5.34617-.2683-8.02496-.28z"/>
    <path id="path48" class="words" fill="#fefefe" d="M295.35453 212.33922c7.48848-9.61306.18514-25.71388 3.3178-37.82292 9.79594-2.9413 12.37633 8.46683 9.88048 17.37326-3.9813 9.73177 8.0535 30.3949-1.5109 34.38442-10.1872 3.49736-6.1161-14.3021-14.7563-2.07362-19.5812 8.27964-6.9666-23.03343-10.5612-33.0121-1.2755-9.34042-3.1629-28.12892 9.6488-16.67196 2.3228 9.72878-5.5602 37.51682 3.9814 37.82292z"/>
    <path id="path50" class="words" fill="#fefefe" d="M262.17653 169.20782c17.32608-5.60403 7.13592 25.17905 10.28777 35.64565.1195 8.63225 5.81677 25.415-7.63353 18.1027-5.8173-6.733 4.33444-30.5708-7.29916-23.2246.0525 10.6595.672 29.20322-14.5983 21.23393 4.0054-8.08952 4.0572-22.67663 2.986-25.13233 8.8792-5.51392-8.3444-31.5217 8.0944-27.2889 8.1077 1.60222-1.0992 37.08417 9.4602 22.7995-.1967-7.3902-.7452-14.7656-1.2973-22.13595z"/>
    <path id="path52" class="words" fill="#fefefe" d="M104.9128 187.12394c-2.9086-13.1028-6.40967-22.9672 10.94356-20.76605 11.25603-4.3135 24.07993-2.3723 17.43398 12.6581-4.70458 12.0406 4.80676 33.2646-.8191 40.1558-20.69478 1.2964-8.3742-31.3601-10.3059-44.6556 2.6684-11.3072-19.4569-3.5409-10.4305 6.6362 3.11005 14.2579 2.18067 40.234-18.40934 37.1587-1.0496-5.8717 15.75923-6.8011 12.06698-18.5544.31725-4.2043.3187-8.478-.4797-12.6329z"/>
    <path id="path54" class="words" fill="#fefefe" d="M225.68072 216.32058c5.6536 2.43275 15.84728-7.646 9.7655 4.65528-16.23162 10.124-26.60685-9.16676-24.15645-23.23496-2.63965-9.75546-.28195-10.36746 2.1401-19.5218-.684-11.11065 9.4418-17.9434 19.55002-11.66552 9.3818 5.94915 12.5639 17.86927-2.1566 18.66262-17.8442.79714-7.2634 20.51396-5.1426 31.10438zm-3.98136-32.51444c11.11663.79282 13.83908-16.3521 3.35928-14.1836-2.24894 4.36046-2.81217 9.3777-3.35928 14.1836z"/>
    <path id="path56" class="words" fill="#fefefe" d="M140.74503 166.55358c5.20855-2.78795 11.87833.34644 9.28985 7.45582-3.8474 11.0516 9.1576 4.60252 10.9358 13.17287 6.77707 10.88915 4.6118 30.22164-10.1893 31.54372-16.32597 10.9326-8.27373-22.2731-10.46793-31.8185.02854-6.7865.1978-13.5717.43158-20.354zm9.9534 47.11276c6.35585-5.8763 8.4892-29.11642-.63502-24.50374.1724 8.16888.4463 16.33525.6351 24.50374z"/>
    <path id="path58" class="words" fill="#fefefe" d="M238.28837 145.9832c-5.91597 11.50754-20.51224 8.51064-16.38164-5.66878.33397-8.83092-3.90744-31.49236 9.74604-20.8736.88074 6.12804-3.20686 36.68332 6.6356 19.9068-.43955-8.70432-3.5164-29.43115 9.9534-19.24325-3.62045 10.32984 9.83588 40.484-8.62628 31.18733-2.0574-.52375.6621-5.47743-1.3272-5.3085z"/>
    <path id="path60" class="words" fill="#fefefe" d="M207.7646 151.95526c.27093-7.08477 1.65353-31.07366-8.62628-15.2619 3.21588 9.4817-1.31332 19.88465-10.61696 12.60766 4.8793-9.06072-4.61022-30.45847 3.73253-33.5098 10.8452-4.21545 2.3047 17.97877 10.7828 5.05966.0779-11.63652 16.0145-3.73532 5.7335 4.34426-4.32 5.3994 13.1257 4.2134 7.7035 14.4013 1.5097 10.28612 2.0789 13.86052-8.7093 12.35882z"/>
    <path id="path62" class="words" fill="#fefefe" d="M82.35175 213.66634c.95652-11.24522 20.07435-3.0667 5.71285 2.68536-20.91866 9.3497-23.62473-24.31688-17.78002-37.2695.4252-17.71713 34.68468-12.47527 24.03845.60005-16.9205 2.48543-20.42378 16.95708-13.39303 31.18208l1.42175 2.802zm7.29916-36.4958c4.2092-14.8007-19.121 2.8099-8.2115 4.759 2.8051-1.4607 5.6385-2.90428 8.2116-4.759z"/>
    <path id="path64" class="words" fill="#fefefe" d="M83.0153 106.1696c21.03214-9.49102 22.2608 22.1742 16.37627 34.65755-5.59952 5.70642-18.04644.40617-12.21866 13.16026 2.7241 10.5187-15.7775 5.6631-9.8392-5.05.4039-11.8559-6.0225-34.3063 2.3638-39.4499 14.1928.9853-1.2865 30.0431 9.1694 29.5453 4.4254-9.0954 5.0864-28.6427-5.8515-32.8631z"/>
    <path id="path66" class="words" fill="#fefefe" d="M108.2306 155.93662c12.0955 1.30986 16.8884-15.45983 2.82012-13.18826-4.687-6.19022-9.30437-31.38354 3.1519-23.30755-.38585 6.8879 5.92846 32.3118 8.74036 14.3184.81166-8.5294-2.31384-26.5938 11.16645-17.6361-.46276 14.2982.63762 34.4855-15.42385 40.7973-2.3701.1258-9.94518 2.3709-10.455-.9836z"/>
    <path id="path68" class="words" fill="#fefefe" d="M278.76553 144.6561c-2.52352 19.5936-31.34804 7.74427-26.87418-9.87046-.92885-8.48435 10.9812-22.50298 22.4781-10.28518 10.19002 9.9974-22.3598 4.1458-11.7192 18.62248.46356 11.43062 10.9677 5.038 16.11528 1.53315zm-16.589-13.93477c17.91672-1.14504-4.66357-17.48162 0 0z"/>
    <path id="path70" class="words" fill="#fefefe" d="M161.3154 116.78657c-1.66355 10.22214-18.34107-3.58057-14.84716 13.4371-2.34064 10.3567-1.60668 26.639 12.93942 17.41845-1.22453 9.9183-29.14303 9.1666-21.9791-7.1877-1.97933-15.81163 3.73087-32.91084 23.88684-23.66785z"/>
    <path id="path72" class="words" fill="#fefefe" d="M171.93236 118.77725c.5104 13.23683-3.45264 32.84437 13.57186 29.90168-15.0976 13.128-26.63962-3.15782-22.6323-18.63284-7.12558-16.492 23.60495-21.5679 19.6346-7.2564-3.83385 2.0828-8.54732-7.835-10.57416-4.0125z"/>

    <path id="path74" class="decor" fill="#ef7f1a" d="M336.49526 164.5629c-9.12993-7.10142-23.9899-.94923-29.2796-15.8425-13.8932-1.33767-19.59386-14.3719-17.83317-27.23888.0958-12.30227 3.1447-24.37302 5.3084-36.54583 9.8245-16.8654 12.722 16.4829 25.8788 14.9301 10.9567 11.4062-12.0467 2.9069-15.5107-4.3961-3.7032-5.741-7.2525-15.4971-7.631-2.2395-1.2573 12.5112-5.1919 24.8094-2.7372 37.4911.4979 14.9282 19.8902 13.788 26.5424 24.5517 10.576 1.0328 11.2601-.9134 15.3448-8.3775 7.774 4.4708-5.727 10.0081.1466 12.5631-1.0058 1.9368-2.3226 3.3539-.2296 5.1041z"/>
    <path id="path76" class="decor" fill="#ef7f1a" d="M337.15882 143.32897c-14.3213 4.4787-31.10113-8.20074-30.0261-23.47343-8.71194-11.77216 9.0241-6.0936 5.55732 4.64492.1479 15.15777 20.35504 10.83288 24.46878 18.8285z"/>
    <path id="path78" class="decor" fill="#ef7f1a" d="M298.67233 134.03913c1.3753-13.22793 15.9691 2.53673 0 0z"/>
    <path id="path80" class="decor" fill="#ef7f1a" d="M295.35453 122.7586c.7852-12.09 14.28353 3.42664 0 0z"/>
    <path id="path82" class="decor" fill="#ef7f1a" d="M316.58846 147.31034c7.48144-11.01975 6.05485 10.18113 0 0z"/>
    <path id="path84" class="decor" fill="#ef7f1a" d="M52.49154 86.2628c-.7191-7.54328-8.75872-27.50064 1.99068-10.61695 8.4134 18.71777-4.43915 41.72107-25.21528 43.1314-8.318 3.0612-25.4188-3.7371-9.83933-4.92487 16.2997 3.08236 35.3548-9.89647 33.064-27.58957z"/>
    <path id="path86" class="decor" fill="#ef7f1a" d="M35.90254 67.68313c-2.24064 2.57096-6.56606 2.0981 0 0z"/>
    <path id="path88" class="decor" fill="#ef7f1a" d="M51.82798 47.11276c13.08196 7.25656 18.5461 24.2112 19.39878 37.92658-4.0817 13.8814-2.46724 27.93528-17.07632 35.81154-8.32588 8.49098-23.72817 8.5586-34.17334 10.534-5.82825 2.7392-18.41645-10.92073-10.61696-7.9627 12.13373 7.7095 20.1585-.3158 33.20912-1.03682 10.50608-6.94893 23.71325-15.87906 21.0058-30.3164 7.31674-13.48938-1.31465-28.59354-9.42462-38.40354-4.0091-1.8697-3.95216-2.95742-2.32246-6.55266z"/>
    <path id="path90" class="decor" fill="#ef7f1a" d="M296.68165 63.0382c-2.20514 9.77378-13.65255 15.09858-19.24324 23.2246-9.9402 4.29052-20.1276 12.17634-31.494 5.3085-13.0162-.644-29.7847-5.3692-36.189-16.9208-6.8217-12.5503-18.1943-23.639-13.2712-39.4318-2.5417-10.62405 12.1389-13.16602 13.2712-22.25426-3.0496-11.57402 13.6496-8.1233 5.3085.97032.5499 11.22027-16.1853 13.53696-12.6076 25.21528-6.6104 15.5758 9.2744 29.06533 17.1696 40.1454 9.0546 4.99567 18.7646 9.05088 29.2796 8.2945 11.8247 6.00846 28.7811-3.68164 32.5145-15.2619 10.4743-1.09905 9.5216-12.41812 11.0877-14.04272.2528 3.049 1.232 4.03173 4.1743 4.75288z"/>
    <path id="path92" class="decor" fill="#ef7f1a" d="M229.6621 21.89748c-11.94642 3.67738-15.1848 16.8046-14.59834 28.07622-.7063 5.585 6.45485 23.09123 7.96272 9.08314-4.36815-22.99255 36.9633-19.13594 23.30755 1.6589-9.1158 4.0781-21.43664 14.85798-3.06896 14.79534 12.34586 1.78013 25.61687-2.68563 31.6643-14.30802 3.0168-5.97456 5.59824-25.29504 10.13998-12.4314-1.08074 21.4935-24.67183 36.84836-45.06807 30.62018-10.58033.79335-19.50296-10.76686-6.6378-16.13592 12.5963-.99793 12.96086-23.27205-.35247-13.75845-4.4209 9.927-9.6249 32.01644-19.8495 13.34153-6.9023-11.34734-5.1277-27.9453 2.5659-38.28728 3.0829-2.21863 11.1964-8.0649 13.9348-2.65424z"/>
    <path id="path94" class="decor" fill="#ef7f1a" d="M112.21195 331.11648c8.93424-3.49298 14.18492-12.49882 25.21528-11.28052 13.47558-6.1591 28.939 6.57966 40.47717 13.2712 10.24928 13.1018-11.66147-5.0582-17.91612-4.64492-9.9727-10.5477-21.3411-3.7016-33.178-1.99068-2.78212 4.142-10.2357 9.43887-14.59833 4.64492z"/>
    <path id="path96" class="decor" fill="#ef7f1a" d="M173.25948 341.73344c-3.987 3.49543-18.2578-11.07144-5.97204-2.41576 1.9912.73363 3.6708 2.84442 5.97204 2.41576zm-15.26188-6.6356c-6.85292 2.2782-16.4906 5.07-21.98773-.09025-.89275-4.8602 18.23728-2.5342 21.98773.0902z"/>
    <path id="path98" class="decor" fill="#ef7f1a" d="M117.52043 303.24695c-6.74993-3.50897 5.62228-11.56127 3.98136-17.91612 7.3539-16.5324 18.769-32.28326 36.6928-38.15212 16.5264-6.82 35.4519-1.2346 50.2335 6.9648 17.5486 10.3118 28.4573 35.7078 15.096 53.5722-8.8891 7.9456-2.2767 22.0942-13.7689 24.728-10.5733-6.3372-15.9591-21.3332-32.0997-20.5703-14.7085-5.0755-31.8918-10.7427-46.2833-1.41-5.7526 3.3152-21.487 1.3609-13.8519-7.2162zm2.65424-1.32712c5.65984 13.67876 25.58482-7.63897 38.07176-.49767 15.15425 6.42658 34.55642 5.78253 46.28332 18.3205 2.84355 10.19142 8.61885 9.96534 7.2162-1.23382 5.69568-13.9974 18.90092-28.22048 8.6263-43.79497-5.67504-14.30788-19.7502-21.2949-33.75703-24.96592-23.88724-7.25477-48.63352 9.89873-57.64838 31.65335-3.4016 6.6395-3.15622 14.726-8.79217 20.51853z"/>
    <path id="path100" class="decor" fill="#ef7f1a" d="M138.0908 290.6393c-11.7557-11.58077 16.22563-23.05306 26.21062-18.33083 14.94052-5.33118 29.06214 3.79377 42.4782 8.61592-.30133 7.7174 15.0638 11.9486 6.29346 19.0047-4.31586-5.9132-8.7688-11.7939-13.2712-17.9161-12.82277-2.825-25.34162-10.6378-39.09822-5.153-8.289-3.5986-20.90645 5.145-22.61287 13.7792z"/>
    <path id="path102" class="decor" fill="#ef7f1a" d="M178.56796 256.79775c14.67058-4.40757-2.0429 21.8566.49767 3.56663l-.49767-3.56663z"/>
    <path id="path104" class="decor" fill="#ef7f1a" d="M194.4934 272.05963c2.38563-12.5724 16.4823-5.69918 4.2302 2.07363-1.2723-.09722-4.7734.47378-4.2302-2.07363z"/>
    <path id="path106" class="decor" fill="#ef7f1a" d="M164.6332 261.44267c-2.29798 15.4338-10.72128-17.13518-.08295-3.89842.12137 1.29746.07293 2.59857.08295 3.89842z"/>
    <path id="path108" class="decor" fill="#ef7f1a" d="M210.41884 285.33083c-.48227-11.8784 18.11048-4.4199 2.98602.33178l-2.98602-.3317z"/>
    <path id="path110" class="decor" fill="#ef7f1a" d="M317.25202 260.11555c-9.50378-7.77288-23.11558-3.37474-34.50513-5.30848-16.3182-7.23506-33.6985 7.13373-37.823 23.2246-11.2286 11.22472-4.0221 29.8066 1.3271 42.46785-12.6007-2.55677-9.5807-22.14725-11.1976-31.93383-.8231-9.851 10.6671-14.4942 11.8611-24.4688 4.8091-11.8375 20.1168-16.9468 31.1044-17.6673 12.8235 6.3638 28.0634-.2962 39.8221 6.0271-.1964 2.5529-.3928 5.1059-.5891 7.6588z"/>
    <path id="path112" class="decor" fill="#ef7f1a" d="M295.35453 271.39607c-11.47468-11.15046-30.63876-3.9379-39.58547 6.62525-9.0207 13.5578 16.08297-4.5631 22.09443 5.77503 13.6451 16.57327-11.2604 28.11696-21.9908 13.39562-13.7732-.04778 8.6582 18.4357-.7835 23.05327-5.0402-6.464-7.5982-16.09797-9.2529-24.54628 7.223-14.71212 33.5007 17.002 30.2956-5.83727-7.785-10.2714-36.857 10.406-26.2314-12.1618 6.7703-13.1411 25.0644-21.1701 39.0671-16.4232 2.6084 2.6896 8.3063 5.4043 6.3867 10.1193z"/>
    <path id="path114" class="decor" fill="#ef7f1a" d="M303.31725 269.4054c-12.0401-9.7426 12.59378-7.03063.66356-1.9907-.2211.66357-.4423 1.32713-.6635 1.9907z"/>
    <path id="path116" class="decor" fill="#ef7f1a" d="M88.3238 245.51723c9.1199 10.0512 42.5525 16.0809 27.56885 33.33354-13.72594-4.91645-21.98474 12.662-29.03075 22.86037-.56788 9.31513-9.458 10.48193-6.0922 2.7092 7.16584-11.53196 14.6581-29.17144 29.22344-31.11653 15.3317 3.1097-2.51257-13.0831-10.38883-13.1467-11.5288-15.9112-29.6102-8.9921-44.8525-3.7947-8.0407-.3221-24.7823 22.0376-15.1996 4.7486 11.176-11.485 33.3078-15.9215 48.7717-15.5937z"/>
    <path id="path118" class="decor" fill="#ef7f1a" d="M92.9687 266.0876c-7.47858 8.59037-30.62097.36468-37.2216 16.85853-13.37365 14.39096-3.46763-11.09433 6.34145-12.50652 9.13417-5.8182 20.5665-6.918 30.88016-4.352z"/>
    <path id="path120" class="decor" fill="#ef7f1a" d="M41.87458 270.06895c-2.61827-11.0488 20.47176 4.59635 5.30848 3.98136-2.33944-.5964-3.69968-2.4486-5.30848-3.9813z"/>
    <path id="path122" class="decor" fill="#ef7f1a" d="M79.03395 262.7698c-6.737-13.4438 13.0219-8.52888 0 0z"/>
    <path id="path124" class="decor" fill="#ef7f1a" d="M65.76275 264.0969c-11.1204 9.59562-2.05664-16.98434 0 0z"/>
    <path id="path126" class="decor" fill="#ef7f1a" d="M187.8578 23.2246c-5.10444 12.67718 3.09823 25.66697-2.6768 37.8455-9.31366 12.44068-23.7684 16.69748-37.80036 21.2943-8.71122 3.29098-18.1018-.03252-25.2153-4.0643-15.79 5.1905-18.7216-17.2324-33.67566-17.16963-5.63356-8.98786-3.96537-19.94887-4.0643-30.27493 10.00568-8.768 1.1084 18.9822 7.2162 25.54706 7.89962 5.53257 18.24393 13.5049 26.95714 16.9208 10.28505 2.5827 8.20007-2.26096 12.93942-8.04568 7.1437 5.39083-8.46218 13.34373 5.8891 11.69525 7.79032 3.42184 13.46296-3.8251 22.17743-2.63354 10.3832-4.4521 21.70718-16.0914 20.95397-28.5538-4.97086-9.44484 10.31962-40.52204-8.62628-30.52375-5.7599 15.02293-23.62606 11.5922-36.60244 11.94408-12.80445 1.02367-25.91242-3.66564-35.06205-12.60764 10.00675.64538 18.70695 5.4684 28.1763 7.96272 10.63977-.3813 21.43576.74823 31.91736-.63245 6.47734-7.3038 21.83212-24.6322 27.1645-6.335.51664 2.52.27782 5.0847.33177 7.6309z"/>
    <path id="path128" class="decor" fill="#ef7f1a" d="M171.2688 41.80428c.53755 17.15316-22.44147 20.04735-34.8369 20.57036-14.09674 1.8104-32.14405-3.374-34.17335-19.9068-3.86988-6.23282-2.84647-18.0828 4.2302-6.6356-1.4398 20.71568 20.56385 22.726 35.5834 22.56104 11.81655-3.49165 22.85016-6.53434 29.19665-16.589z"/>
    <path id="path130" class="decor" fill="#ef7f1a" d="M162.64252 68.3467c-6.05233-18.60704 13.59774 2.58057 0 0z"/>
    <path id="path132" class="decor" fill="#ef7f1a" d="M146.05352 69.6738c7.7375-17.73987 6.09778 14.46913 0 0z"/>
    <path id="path134" class="decor" fill="#ef7f1a" d="M93.63227 52.42124c1.75452-13.68725 15.6567 3.0902 0 0z"/>
    <path id="path136" class="decor" fill="#ef7f1a" d="M90.31447 41.14072c.7343-12.02802 14.26966 3.25768 0 0z"/>
    <path id="path138" class="decor" fill="#ef7f1a" d="M111.5484 65.69245c6.98555-9.9418 4.76515 8.53882 0 0z"/>
  </g>
</svg>
